<svg width="80" height="80" viewBox="0 0 80 80" fill="none" xmlns="http://www.w3.org/2000/svg">
<path d="M28.6054 70.3875C28.1448 70.0275 27.6327 69.7385 27.0862 69.5302C26.5748 69.3505 26.0389 69.2496 25.497 69.2311C24.323 69.2179 23.1526 69.3654 22.0188 69.6699C20.8594 69.9588 19.75 70.2974 18.9305 70.5768C18.1109 70.8556 17.5711 71.0651 17.5711 71.0651C17.5711 71.0651 18.1009 71.3642 18.9405 71.723C19.9917 72.1779 21.0916 72.5123 22.2187 72.7194C23.4926 72.969 24.8059 72.9385 26.0667 72.6299C26.6478 72.5057 27.1868 72.2341 27.6316 71.8412C28.0765 71.4484 28.4119 70.9475 28.6054 70.3875Z" fill="#C4A386"/>
<path d="M25.0667 65.2645C25.498 66.2997 26.1859 67.2084 27.0657 67.9057C27.4827 68.2293 27.968 68.4543 28.485 68.5636C29.0178 68.6723 29.571 68.6203 30.0741 68.4137C30.1088 67.3576 29.8232 66.3158 29.2545 65.4245C28.7115 64.5964 28.0363 63.8621 27.2556 63.252C26.5774 62.7075 25.8664 62.2048 25.1267 61.7469C24.537 61.3779 24.1272 61.169 24.1272 61.169C24.1272 61.169 24.1272 61.2985 24.1272 61.5278C24.1272 61.757 24.1872 62.0657 24.2571 62.4645C24.4115 63.4275 24.6834 64.3678 25.0667 65.2645Z" fill="#C4A386"/>
<path d="M16.7309 67.9558C17.2957 67.9493 17.8515 67.8138 18.3557 67.56C18.8599 67.3057 19.299 66.9403 19.6394 66.4908C19.3736 66.0215 19.0151 65.6108 18.5856 65.2836C18.1561 64.9564 17.6646 64.7194 17.1407 64.5869C16.0096 64.2854 14.8434 64.1344 13.6725 64.1385C12.4831 64.1385 11.2937 64.1385 10.4043 64.1385H8.915C8.915 64.1385 9.02497 64.2681 9.22485 64.4675C9.42473 64.6669 9.73458 64.9361 10.1144 65.2448C11.0284 65.9958 12.0363 66.6257 13.1128 67.1182C14.2376 67.6729 15.4761 67.9594 16.7309 67.9558Z" fill="#C4A386"/>
<path d="M18.9902 63.4012C19.3001 63.8263 19.7104 64.169 20.1845 64.3982C20.6587 64.6281 21.1822 64.7373 21.7088 64.717C22.1247 63.7158 22.1497 62.5958 21.7788 61.5779C21.4238 60.6424 20.9247 59.7684 20.2995 58.9869C19.7299 58.2096 19.1502 57.5415 18.7304 57.0735C18.5205 56.8239 18.3406 56.6346 18.2206 56.5051L18.0308 56.3057C18.0308 56.3057 18.0308 56.4257 17.9308 56.6346C17.8554 56.9338 17.7954 57.2364 17.7509 57.5415C17.6037 58.4961 17.6037 59.4675 17.7509 60.4215C17.9075 61.5027 18.3336 62.5272 18.9902 63.4012Z" fill="#C4A386"/>
<path d="M4.73732 55.0999C3.91774 54.8408 3.37803 54.6913 3.37803 54.6913C3.37803 54.6913 3.428 54.8308 3.53798 55.06C3.64789 55.2893 3.81779 55.5982 4.02771 55.9769C4.23756 56.3558 4.49744 56.794 4.79732 57.2526C4.94723 57.4818 5.10711 57.7111 5.27702 57.9499L5.40699 58.1296L5.5769 58.3487L5.92669 58.7875C6.7901 59.8723 7.93887 60.6973 9.24496 61.169C9.78586 61.3678 10.3679 61.4293 10.9386 61.3475C11.5093 61.2657 12.0505 61.0436 12.5133 60.7009C12.2464 59.6358 11.6043 58.7021 10.7042 58.0699C10.4943 57.9003 10.2545 57.7409 10.0146 57.5714L9.25499 57.0931L8.44538 56.6245C8.19553 56.4854 7.93565 56.3558 7.67577 56.2358C6.72293 55.7921 5.74126 55.4125 4.73732 55.0999Z" fill="#C4A386"/>
<path d="M12.7937 57.1528C12.9295 57.6567 13.1987 58.1152 13.5733 58.48C13.9478 58.8448 14.4139 59.1021 14.9226 59.2257C15.5822 58.391 15.9569 57.3677 15.992 56.3057C16.0184 55.4215 15.9582 54.5371 15.8121 53.6647C15.7519 53.2231 15.6584 52.7867 15.5323 52.3591C15.4023 51.9206 15.2724 51.522 15.1425 51.1932C15.0125 50.8643 14.9026 50.5852 14.8227 50.3959L14.7127 50.0969L14.5028 50.3959C14.3729 50.5952 14.2129 50.8742 14.033 51.223C13.5686 52.1095 13.1968 53.0412 12.9236 54.0035C12.8536 54.2726 12.7837 54.5516 12.7237 54.8307C12.6717 55.0941 12.635 55.3603 12.6138 55.6279C12.5888 55.8931 12.5888 56.16 12.6138 56.4251C12.6507 56.6728 12.7109 56.9164 12.7937 57.1528Z" fill="#C4A386"/>
<path d="M3.47791 51.0135C3.67343 51.24 3.8874 51.45 4.11761 51.6413C4.33403 51.8281 4.5646 51.9981 4.80722 52.1496C5.26048 52.4796 5.78274 52.7031 6.33492 52.8032C6.8871 52.9033 7.45481 52.8775 7.99558 52.7276C8.09021 52.1958 8.05594 51.649 7.89564 51.1331C7.82155 50.8887 7.71749 50.6544 7.58579 50.4355C7.45546 50.2081 7.31194 49.9885 7.156 49.7778C6.43964 48.8801 5.57421 48.1115 4.59731 47.5055C3.73713 46.9001 2.8428 46.3444 1.91874 45.8412L0.659399 45.1635C0.659399 45.1635 0.659398 45.313 0.739339 45.5622C0.819339 45.8114 0.909249 46.1601 1.05916 46.5588C1.38017 47.6083 1.83355 48.6129 2.40847 49.5485C2.728 50.0626 3.08549 50.5523 3.47791 51.0135Z" fill="#C4A386"/>
<path d="M9.73477 50.5951C9.95906 51.0675 10.3037 51.4729 10.7342 51.7711C11.6947 51.2344 12.4106 50.3492 12.7332 49.2996C12.8129 49.0549 12.8763 48.8051 12.9231 48.5521L12.9831 48.1734C12.9831 48.0538 12.9831 47.9243 13.043 47.7947C13.1026 47.2854 13.1226 46.7724 13.103 46.26C13.0696 45.3922 12.9861 44.5271 12.8531 43.6689C12.7932 43.33 12.7332 43.051 12.6932 42.8617C12.6532 42.6723 12.6332 42.5627 12.6332 42.5627L12.3834 42.8118C12.1607 43.0326 11.9505 43.2655 11.7537 43.5094C11.1336 44.2668 10.5975 45.0888 10.1545 45.961C9.66647 46.9442 9.4036 48.0233 9.38492 49.1202C9.38736 49.379 9.42092 49.6367 9.48486 49.8875C9.54133 50.132 9.62515 50.3694 9.73477 50.5951Z" fill="#C4A386"/>
<path d="M1.45922 41.5462C1.59916 41.8107 1.75958 42.0639 1.93899 42.3035C2.11982 42.5363 2.31684 42.7561 2.52866 42.9613C2.91123 43.3631 3.37899 43.6745 3.89779 43.8727C4.4166 44.071 4.97326 44.1512 5.52711 44.1073C5.72544 43.6076 5.79756 43.0669 5.73702 42.5328C5.70639 42.2785 5.6495 42.028 5.56711 41.7853C5.50305 41.5334 5.41947 41.2869 5.3172 41.0478C5.07648 40.5435 4.77797 40.0686 4.4277 39.6327L3.88794 38.9551C3.70806 38.7258 3.50818 38.5066 3.31827 38.2874C2.52866 37.4303 1.66913 36.633 1.05946 36.045C0.449791 35.457 0 35.0684 0 35.0684C0 35.0684 0 35.6663 0 36.5632C0.0466269 37.0783 0.12 37.5905 0.21988 38.098C0.27988 38.377 0.339821 38.666 0.409791 38.9551C0.474507 39.2523 0.557971 39.5452 0.659642 39.832C0.88621 40.4211 1.15337 40.9939 1.45922 41.5462Z" fill="#C4A386"/>
<path d="M8.40569 43.4596C9.42946 43.1173 10.2883 42.4066 10.8145 41.4664C10.9424 41.2497 11.0526 41.0231 11.1443 40.7887C11.2587 40.5592 11.3588 40.3229 11.4441 40.0812C11.6015 39.6163 11.7218 39.1398 11.804 38.6561C11.8939 38.1877 11.9938 37.7293 12.0438 37.3107C12.0438 37.0914 12.0438 36.8921 12.1038 36.7028C12.1637 36.5134 12.1038 36.334 12.1038 36.1646C12.1588 35.8015 12.1922 35.4354 12.2037 35.0684C12.2037 35.0684 11.764 35.3175 11.1343 35.766L10.6246 36.1447C10.4447 36.2942 10.2647 36.4436 10.0849 36.6131C9.69453 36.9614 9.33041 37.3377 8.99543 37.7392C8.82552 37.9485 8.65561 38.1677 8.49567 38.397L8.27579 38.7457L8.08587 39.1145C7.84778 39.5915 7.67304 40.0973 7.56617 40.6194C7.51047 40.8713 7.48366 41.1287 7.48617 41.3867C7.50098 41.6359 7.54116 41.8831 7.60611 42.1242C7.74981 42.6318 8.02569 43.0925 8.40569 43.4596Z" fill="#C4A386"/>
<path d="M4.24827 29.0889C3.97841 28.5707 3.68856 28.0923 3.40874 27.604L2.63913 26.3583C2.18934 25.6307 1.85955 25.1624 1.85955 25.1624C1.85955 25.1624 1.68964 25.7304 1.5097 26.6074C1.44976 27.0559 1.37979 27.604 1.33979 28.1521C1.33979 28.4312 1.33979 28.7301 1.33979 29.0291C1.33979 29.3281 1.33979 29.637 1.33979 29.946C1.3885 30.5644 1.4888 31.1778 1.63967 31.7797C1.79692 32.3569 2.03227 32.9101 2.33931 33.424C2.61525 33.9041 2.99877 34.314 3.46003 34.6218C3.92122 34.9295 4.44755 35.1267 4.99788 35.198C5.14755 34.9712 5.26844 34.7269 5.3577 34.4704C5.45215 34.2295 5.51919 33.9788 5.55758 33.723C5.6343 33.2118 5.61053 32.6905 5.48767 32.1883C5.37322 31.6495 5.20928 31.1224 4.99788 30.6137C4.778 30.0855 4.50815 29.5473 4.24827 29.0889Z" fill="#C4A386"/>
<path d="M10.7148 33.5934C11.0684 33.2478 11.3773 32.8594 11.6343 32.4374C11.915 32.0416 12.1592 31.6214 12.3639 31.1817C12.4739 30.9724 12.5538 30.7631 12.6537 30.5638L12.9136 29.9659C13.0736 29.5772 13.1935 29.2184 13.3034 28.9095C13.5333 28.3016 13.6432 27.9129 13.6432 27.9129C13.2268 28.0204 12.8164 28.1501 12.4139 28.3016C11.5141 28.6387 10.6637 29.0946 9.88521 29.6569C9.65781 29.8121 9.44079 29.9818 9.23554 30.1652C9.03572 30.3479 8.84557 30.5408 8.66587 30.7432C8.30718 31.1439 8.00766 31.5936 7.77631 32.0786C7.57166 32.5365 7.4661 33.0323 7.46646 33.5336C7.45966 33.7832 7.49339 34.0323 7.5664 34.2711C7.64861 34.5268 7.76282 34.7713 7.90622 34.9986C8.97864 34.8728 9.97267 34.3755 10.7148 33.5934Z" fill="#C4A386"/>
<path d="M7.20594 25.88C7.362 25.6772 7.49292 25.4563 7.59579 25.2222C7.69448 24.9916 7.76821 24.751 7.81567 24.5047C7.81567 24.2556 7.88558 23.9965 7.91561 23.7373C7.94791 23.1942 7.9177 22.6492 7.82564 22.1129C7.74952 21.5388 7.63937 20.9698 7.49579 20.4088C7.20594 19.2726 6.89615 18.2063 6.6063 17.419C6.31644 16.6317 6.1365 16.0337 6.1365 16.0337C6.1365 16.0337 6.05657 16.1633 5.93663 16.3825C5.81669 16.6018 5.65674 16.9406 5.46689 17.3791C5.0143 18.3805 4.67895 19.4305 4.46737 20.5084C4.36815 21.1049 4.31137 21.7077 4.29746 22.3122C4.30092 22.6124 4.32427 22.912 4.36743 23.2091C4.4143 23.4949 4.4777 23.7778 4.55734 24.0562C4.70253 24.5871 4.96176 25.0802 5.31692 25.5013C5.68027 25.9406 6.14737 26.283 6.67627 26.4978C6.88021 26.3169 7.05842 26.109 7.20594 25.88Z" fill="#C4A386"/>
<path d="M16.6815 21.5548C16.7914 21.3954 16.8414 21.3057 16.8414 21.3057H16.4916C16.2517 21.3057 15.9418 21.3057 15.5621 21.3854C15.1822 21.4651 14.7325 21.505 14.2527 21.6146C14.0129 21.6645 13.763 21.7342 13.5131 21.804C13.2633 21.8737 13.0234 21.9734 12.7735 22.0731C12.2622 22.2665 11.773 22.5137 11.3142 22.8105C10.8762 23.0899 10.4763 23.4249 10.1249 23.8071C9.9632 23.999 9.82558 24.2098 9.71508 24.4349C9.60678 24.6554 9.51979 24.8857 9.45526 25.1226C9.38702 25.3625 9.3534 25.6108 9.35525 25.8601C9.3771 26.1271 9.42737 26.391 9.50523 26.6474C10.0498 26.753 10.6098 26.753 11.1544 26.6474C11.6514 26.5337 12.1295 26.3491 12.5736 26.0992C12.7835 25.9697 12.9934 25.8401 13.1933 25.6906L13.4731 25.4614L13.763 25.2223C14.1242 24.9193 14.4586 24.5859 14.7625 24.2257C15.0625 23.9109 15.3429 23.5781 15.602 23.2291L15.7819 22.97L15.9519 22.7408C16.0718 22.5813 16.1717 22.4318 16.2616 22.3023C16.3516 22.1727 16.5915 21.7243 16.6815 21.5548Z" fill="#C4A386"/>
<path d="M10.4645 18.545C10.9368 18.315 11.3453 17.9728 11.6539 17.5484C11.9632 17.1443 12.1906 16.684 12.3235 16.1931C12.8673 14.0997 12.7234 11.8753 12.5334 9.74522C12.4434 8.91805 12.3535 8.35996 12.3535 8.35996C11.9491 8.67359 11.643 9.03765 11.344 9.4562C11.041 9.85202 10.7607 10.2646 10.5044 10.692C10.206 11.1898 9.93894 11.7057 9.70485 12.2367C9.4673 12.7912 9.27673 13.3646 9.13518 13.9508C9.01667 14.5208 8.96963 15.1033 8.99524 15.6849C9.00921 16.241 9.14855 16.7868 9.40288 17.2819C9.65721 17.777 10.0201 18.2087 10.4645 18.545Z" fill="#C4A386"/>
<path d="M18.8598 17.9469C19.2496 17.6579 19.6095 17.3789 19.9293 17.0998C20.2491 16.8208 20.549 16.5517 20.7788 16.3225C21.0087 16.0933 21.2186 15.894 21.3486 15.7544L21.5584 15.5352C21.1355 15.4501 20.7086 15.387 20.2791 15.3458C19.8506 15.3041 19.4201 15.2874 18.9897 15.296C18.4676 15.2923 17.946 15.3324 17.4306 15.4156C16.3537 15.5403 15.324 15.9271 14.4321 16.5417C14.0289 16.845 13.6893 17.2242 13.4327 17.6579C13.2065 18.1121 13.0998 18.6163 13.1228 19.1229C14.1092 19.5483 15.2164 19.6049 16.2412 19.2823C16.7218 19.1434 17.1846 18.9494 17.6205 18.7043C18.0521 18.4833 18.4665 18.2301 18.8598 17.9469Z" fill="#C4A386"/>
<path d="M15.6685 13.4066C16.2565 13.4066 17.1741 13.4605 17.9207 12.9444C18.1232 12.7964 18.3167 12.6367 18.5003 12.466C18.6926 12.2958 18.873 12.1127 19.0401 11.9179C19.401 11.5291 19.735 11.1162 20.0396 10.6821C20.6193 9.82508 21.119 8.93809 21.4788 8.27039C21.6587 7.9415 21.7844 7.65265 21.8843 7.45336L21.952 7.28312L21.9885 7.16418L21.5229 7.19683C21.2129 7.23767 21.0317 7.2649 20.7292 7.34359C19.7743 7.58526 18.8541 7.94693 17.9906 8.41989C16.9931 8.93457 16.1305 9.67523 15.472 10.5825C15.1664 11.0135 14.9615 11.5072 14.8723 12.0275C14.7728 12.4638 14.7756 12.9016 14.8723 13.353" fill="#C4A386"/>
<path d="M51.3944 70.3875C51.855 70.0275 52.3671 69.7385 52.9136 69.5302C53.425 69.3505 53.9609 69.2496 54.5028 69.2311C55.6768 69.2179 56.8471 69.3654 57.9809 69.6699C59.1403 69.9588 60.2498 70.2974 61.0693 70.5768C61.8889 70.8556 62.4286 71.0651 62.4286 71.0651C62.4286 71.0651 61.8989 71.3642 61.0593 71.723C60.008 72.1779 58.9082 72.5123 57.781 72.7194C56.5071 72.969 55.1939 72.9385 53.933 72.6299C53.352 72.5057 52.8129 72.2341 52.3682 71.8412C51.9233 71.4484 51.5879 70.9475 51.3944 70.3875Z" fill="#C4A386"/>
<path d="M54.933 65.2645C54.5017 66.2997 53.8139 67.2084 52.9341 67.9057C52.5171 68.2293 52.0318 68.4543 51.5148 68.5636C50.982 68.6723 50.4287 68.6203 49.9257 68.4137C49.891 67.3576 50.1766 66.3158 50.7453 65.4245C51.2882 64.5964 51.9635 63.8621 52.7442 63.252C53.4224 62.7075 54.1334 62.2048 54.8731 61.7469C55.4628 61.3779 55.8725 61.169 55.8725 61.169C55.8725 61.169 55.8725 61.2985 55.8725 61.5278C55.8725 61.757 55.8126 62.0657 55.7426 62.4645C55.5882 63.4275 55.3164 64.3678 54.933 65.2645Z" fill="#C4A386"/>
<path d="M63.2688 67.9558C62.7041 67.9493 62.1482 67.8138 61.644 67.56C61.1399 67.3057 60.7008 66.9403 60.3603 66.4908C60.6262 66.0215 60.9847 65.6108 61.4141 65.2836C61.8436 64.9564 62.3352 64.7194 62.859 64.5869C63.9901 64.2854 65.1563 64.1344 66.3273 64.1385C67.5166 64.1385 68.706 64.1385 69.5955 64.1385H71.0848C71.0848 64.1385 70.9748 64.2681 70.7749 64.4675C70.575 64.6669 70.2652 64.9361 69.8854 65.2448C68.9713 65.9958 67.9635 66.6257 66.887 67.1182C65.7621 67.6729 64.5236 67.9594 63.2688 67.9558Z" fill="#C4A386"/>
<path d="M61.0095 63.4012C60.6996 63.8263 60.2894 64.169 59.8153 64.3982C59.3411 64.6281 58.8176 64.7373 58.291 64.717C57.875 63.7158 57.8501 62.5958 58.221 61.5779C58.576 60.6424 59.075 59.7684 59.7002 58.9869C60.2699 58.2096 60.8496 57.5415 61.2694 57.0735C61.4793 56.8239 61.6592 56.6346 61.7792 56.5051L61.969 56.3057C61.969 56.3057 61.969 56.4257 62.0689 56.6346C62.1443 56.9338 62.2044 57.2364 62.2489 57.5415C62.396 58.4961 62.396 59.4675 62.2489 60.4215C62.0923 61.5027 61.6661 62.5272 61.0095 63.4012Z" fill="#C4A386"/>
<path d="M75.2625 55.0999C76.082 54.8408 76.6217 54.6913 76.6217 54.6913C76.6217 54.6913 76.5718 54.8308 76.4618 55.06C76.3519 55.2893 76.182 55.5982 75.9721 55.9769C75.7622 56.3558 75.5023 56.794 75.2025 57.2526C75.0525 57.4818 74.8927 57.7111 74.7228 57.9499L74.5928 58.1296L74.4229 58.3487L74.0731 58.7875C73.2097 59.8723 72.0609 60.6973 70.7548 61.169C70.2139 61.3678 69.6318 61.4293 69.0612 61.3475C68.4905 61.2657 67.9493 61.0436 67.4865 60.7009C67.7534 59.6358 68.3955 58.7021 69.2956 58.0699C69.5054 57.9003 69.7453 57.7409 69.9852 57.5714L70.7448 57.0931L71.5544 56.6245C71.8042 56.4854 72.0641 56.3558 72.324 56.2358C73.2768 55.7921 74.2585 55.4125 75.2625 55.0999Z" fill="#C4A386"/>
<path d="M67.2061 57.1528C67.0703 57.6567 66.8011 58.1152 66.4265 58.48C66.0519 58.8448 65.5859 59.1021 65.0772 59.2257C64.4175 58.391 64.0429 57.3677 64.0077 56.3057C63.9814 55.4215 64.0416 54.5371 64.1877 53.6647C64.2479 53.2231 64.3414 52.7867 64.4675 52.3591C64.5975 51.9206 64.7274 51.522 64.8573 51.1932C64.9873 50.8643 65.0972 50.5852 65.1771 50.3959L65.2871 50.0969L65.497 50.3959C65.6269 50.5952 65.7869 50.8742 65.9667 51.223C66.4312 52.1095 66.803 53.0412 67.0762 54.0035C67.1461 54.2726 67.2161 54.5516 67.276 54.8307C67.328 55.0941 67.3648 55.3603 67.386 55.6279C67.411 55.8931 67.411 56.16 67.386 56.4251C67.3491 56.6728 67.2888 56.9164 67.2061 57.1528Z" fill="#C4A386"/>
<path d="M76.5219 51.0135C76.3263 51.24 76.1124 51.45 75.8822 51.6413C75.6657 51.8281 75.4352 51.9981 75.1926 52.1496C74.7393 52.4796 74.217 52.7031 73.6649 52.8032C73.1127 52.9033 72.545 52.8775 72.0042 52.7276C71.9096 52.1958 71.9438 51.649 72.1041 51.1331C72.1782 50.8887 72.2823 50.6544 72.414 50.4355C72.5443 50.2081 72.6878 49.9885 72.8438 49.7778C73.5601 48.8801 74.4256 48.1115 75.4025 47.5055C76.2626 46.9001 77.157 46.3444 78.081 45.8412L79.3404 45.1635C79.3404 45.1635 79.3404 45.313 79.2604 45.5622C79.1804 45.8114 79.0905 46.1601 78.9406 46.5588C78.6196 47.6083 78.1662 48.6129 77.5913 49.5485C77.2718 50.0626 76.9143 50.5523 76.5219 51.0135Z" fill="#C4A386"/>
<path d="M70.265 50.5951C70.0407 51.0675 69.6961 51.4729 69.2655 51.7711C68.3051 51.2344 67.5891 50.3492 67.2666 49.2996C67.1869 49.0549 67.1235 48.8051 67.0767 48.5521L67.0167 48.1734C67.0167 48.0538 67.0167 47.9243 66.9568 47.7947C66.8972 47.2854 66.8771 46.7724 66.8968 46.26C66.9302 45.3922 67.0137 44.5271 67.1467 43.6689C67.2066 43.33 67.2666 43.051 67.3066 42.8617C67.3466 42.6723 67.3666 42.5627 67.3666 42.5627L67.6164 42.8118C67.839 43.0326 68.0492 43.2655 68.2461 43.5094C68.8661 44.2668 69.4023 45.0888 69.8452 45.961C70.3333 46.9442 70.5962 48.0233 70.6149 49.1202C70.6124 49.379 70.5789 49.6367 70.5149 49.8875C70.4584 50.132 70.3746 50.3694 70.265 50.5951Z" fill="#C4A386"/>
<path d="M78.5406 41.5462C78.4006 41.8107 78.2402 42.0639 78.0608 42.3035C77.88 42.5363 77.6829 42.7561 77.4711 42.9613C77.0886 43.3631 76.6208 43.6745 76.102 43.8727C75.5832 44.071 75.0265 44.1512 74.4727 44.1073C74.2743 43.6076 74.2022 43.0669 74.2628 42.5328C74.2934 42.2785 74.3503 42.028 74.4327 41.7853C74.4967 41.5334 74.5803 41.2869 74.6826 41.0478C74.9233 40.5435 75.2218 40.0686 75.5721 39.6327L76.1118 38.9551C76.2917 38.7258 76.4916 38.5066 76.6815 38.2874C77.4711 37.4303 78.3306 36.633 78.9403 36.045C79.55 35.457 79.9998 35.0684 79.9998 35.0684C79.9998 35.0684 79.9998 35.6663 79.9998 36.5632C79.9531 37.0783 79.8798 37.5905 79.7799 38.098C79.7199 38.377 79.66 38.666 79.59 38.9551C79.5253 39.2523 79.4418 39.5452 79.3401 39.832C79.1136 40.4211 78.8464 40.9939 78.5406 41.5462Z" fill="#C4A386"/>
<path d="M71.5941 43.4596C70.5703 43.1173 69.7114 42.4066 69.1853 41.4664C69.0574 41.2497 68.9472 41.0231 68.8555 40.7887C68.7411 40.5592 68.641 40.3229 68.5556 40.0812C68.3983 39.6163 68.278 39.1398 68.1958 38.6561C68.1059 38.1877 68.006 37.7293 67.956 37.3107C67.956 37.0914 67.956 36.8921 67.896 36.7028C67.836 36.5134 67.896 36.334 67.896 36.1646C67.8409 35.8015 67.8076 35.4354 67.796 35.0684C67.796 35.0684 68.2358 35.3175 68.8655 35.766L69.3752 36.1447C69.5551 36.2942 69.735 36.4436 69.9149 36.6131C70.3052 36.9614 70.6694 37.3377 71.0043 37.7392C71.1743 37.9485 71.3442 38.1677 71.5041 38.397L71.724 38.7457L71.9139 39.1145C72.152 39.5915 72.3267 40.0973 72.4336 40.6194C72.4893 40.8713 72.5161 41.1287 72.5136 41.3867C72.4988 41.6359 72.4586 41.8831 72.3937 42.1242C72.25 42.6318 71.9741 43.0925 71.5941 43.4596Z" fill="#C4A386"/>
<path d="M75.7515 29.0889C76.0214 28.5707 76.3112 28.0923 76.591 27.604L77.3606 26.3583C77.8104 25.6307 78.1402 25.1624 78.1402 25.1624C78.1402 25.1624 78.3101 25.7304 78.4901 26.6074C78.55 27.0559 78.62 27.604 78.66 28.1521C78.66 28.4312 78.66 28.7301 78.66 29.0291C78.66 29.3281 78.66 29.637 78.66 29.946C78.6113 30.5644 78.511 31.1778 78.3601 31.7797C78.2029 32.3569 77.9675 32.9101 77.6605 33.424C77.3845 33.9041 77.001 34.314 76.5397 34.6218C76.0786 34.9295 75.5522 35.1267 75.0019 35.198C74.8522 34.9712 74.7313 34.7269 74.6421 34.4704C74.5476 34.2295 74.4806 33.9788 74.4422 33.723C74.3655 33.2118 74.3892 32.6905 74.5121 32.1883C74.6266 31.6495 74.7905 31.1224 75.0019 30.6137C75.2218 30.0855 75.4916 29.5473 75.7515 29.0889Z" fill="#C4A386"/>
<path d="M69.285 33.5934C68.9313 33.2478 68.6224 32.8594 68.3655 32.4374C68.0848 32.0416 67.8405 31.6214 67.6359 31.1817C67.5259 30.9724 67.446 30.7631 67.346 30.5638L67.0861 29.9659C66.9262 29.5772 66.8063 29.2184 66.6964 28.9095C66.4664 28.3016 66.3565 27.9129 66.3565 27.9129C66.773 28.0204 67.1834 28.1501 67.5859 28.3016C68.4857 28.6387 69.3361 29.0946 70.1146 29.6569C70.342 29.8121 70.559 29.9818 70.7642 30.1652C70.9641 30.3479 71.1542 30.5408 71.3339 30.7432C71.6926 31.1439 71.9921 31.5936 72.2235 32.0786C72.4281 32.5365 72.5337 33.0323 72.5333 33.5336C72.5401 33.7832 72.5064 34.0323 72.4334 34.2711C72.3512 34.5268 72.237 34.7713 72.0935 34.9986C71.0211 34.8728 70.0271 34.3755 69.285 33.5934Z" fill="#C4A386"/>
<path d="M72.7938 25.88C72.6378 25.6772 72.5068 25.4563 72.404 25.2222C72.3053 24.9916 72.2316 24.751 72.1841 24.5047C72.1841 24.2556 72.1142 23.9965 72.0842 23.7373C72.0519 23.1942 72.0821 22.6492 72.1741 22.1129C72.2503 21.5388 72.3604 20.9698 72.504 20.4088C72.7938 19.2726 73.1036 18.2063 73.3935 17.419C73.6833 16.6317 73.8633 16.0337 73.8633 16.0337C73.8633 16.0337 73.9432 16.1633 74.0631 16.3825C74.1831 16.6018 74.343 16.9406 74.5329 17.3791C74.9855 18.3805 75.3208 19.4305 75.5324 20.5084C75.6316 21.1049 75.6884 21.7077 75.7023 22.3122C75.6989 22.6124 75.6755 22.912 75.6323 23.2091C75.5855 23.4949 75.5221 23.7778 75.4424 24.0562C75.2972 24.5871 75.038 25.0802 74.6829 25.5013C74.3195 25.9406 73.8524 26.283 73.3235 26.4978C73.1196 26.3169 72.9414 26.109 72.7938 25.88Z" fill="#C4A386"/>
<path d="M63.3183 21.5548C63.2084 21.3954 63.1584 21.3057 63.1584 21.3057H63.5082C63.7481 21.3057 64.0579 21.3057 64.4377 21.3854C64.8175 21.4651 65.2673 21.505 65.747 21.6146C65.9869 21.6645 66.2368 21.7342 66.4867 21.804C66.7365 21.8737 66.9764 21.9734 67.2262 22.0731C67.7376 22.2665 68.2268 22.5137 68.6855 22.8105C69.1236 23.0899 69.5234 23.4249 69.8749 23.8071C70.0366 23.999 70.1742 24.2098 70.2847 24.4349C70.393 24.6554 70.48 24.8857 70.5445 25.1226C70.6128 25.3625 70.6464 25.6108 70.6445 25.8601C70.6227 26.1271 70.5724 26.391 70.4945 26.6474C69.95 26.753 69.39 26.753 68.8454 26.6474C68.3483 26.5337 67.8703 26.3491 67.4262 26.0992C67.2163 25.9697 67.0064 25.8401 66.8065 25.6906L66.5267 25.4614L66.2368 25.2223C65.8756 24.9193 65.5412 24.5859 65.2373 24.2257C64.9373 23.9109 64.6569 23.5781 64.3978 23.2291L64.2178 22.97L64.0479 22.7408C63.928 22.5813 63.828 22.4318 63.7381 22.3023C63.6482 22.1727 63.4083 21.7243 63.3183 21.5548Z" fill="#C4A386"/>
<path d="M69.5353 18.545C69.0629 18.315 68.6545 17.9728 68.3459 17.5484C68.0366 17.1443 67.8091 16.684 67.6763 16.1931C67.1325 14.0997 67.2764 11.8753 67.4664 9.74522C67.5564 8.91805 67.6463 8.35996 67.6463 8.35996C68.0507 8.67359 68.3567 9.03765 68.6558 9.4562C68.9588 9.85202 69.2391 10.2646 69.4953 10.692C69.7938 11.1898 70.0608 11.7057 70.2949 12.2367C70.5325 12.7912 70.723 13.3646 70.8646 13.9508C70.9831 14.5208 71.0301 15.1033 71.0045 15.6849C70.9906 16.241 70.8512 16.7868 70.5969 17.2819C70.3426 17.777 69.9797 18.2087 69.5353 18.545Z" fill="#C4A386"/>
<path d="M61.1399 17.9469C60.7501 17.6579 60.3903 17.3789 60.0705 17.0998C59.7507 16.8208 59.4508 16.5517 59.2209 16.3225C58.991 16.0933 58.7812 15.894 58.6512 15.7544L58.4414 15.5352C58.8642 15.4501 59.2912 15.387 59.7206 15.3458C60.1491 15.3041 60.5796 15.2874 61.01 15.296C61.5322 15.2923 62.0537 15.3324 62.5692 15.4156C63.6461 15.5403 64.6758 15.9271 65.5676 16.5417C65.9709 16.845 66.3104 17.2242 66.5671 17.6579C66.7933 18.1121 66.8999 18.6163 66.8769 19.1229C65.8906 19.5483 64.7834 19.6049 63.7586 19.2823C63.278 19.1434 62.8152 18.9494 62.3793 18.7043C61.9476 18.4833 61.5333 18.2301 61.1399 17.9469Z" fill="#C4A386"/>
<path d="M64.3313 13.4066C63.7433 13.4066 62.8257 13.4605 62.0791 12.9444C61.8766 12.7964 61.6831 12.6367 61.4994 12.466C61.3071 12.2958 61.1268 12.1127 60.9597 11.9179C60.5988 11.5291 60.2648 11.1162 59.9602 10.6821C59.3805 9.82508 58.8807 8.93809 58.521 8.27039C58.341 7.9415 58.2154 7.65265 58.1154 7.45336L58.0478 7.28312L58.0112 7.16418L58.4769 7.19683C58.7868 7.23767 58.9681 7.2649 59.2706 7.34359C60.2255 7.58526 61.1456 7.94693 62.0092 8.41989C63.0067 8.93457 63.8693 9.67523 64.5278 10.5825C64.8333 11.0135 65.0382 11.5072 65.1275 12.0275C65.227 12.4638 65.2242 12.9016 65.1275 13.353" fill="#C4A386"/>
<g clip-path="url(#clip0_2872_83)">
<path fill-rule="evenodd" clip-rule="evenodd" d="M28.0021 34.8364C28.004 42.5048 28.0106 43.6594 28.0521 43.572C28.0783 43.5166 28.3177 42.852 28.5839 42.0951C29.1887 40.3758 32.1604 31.9435 33.2677 28.805C33.7232 27.5139 34.1109 26.4525 34.1292 26.4465C34.1475 26.4404 34.2477 26.6735 34.3519 26.9645C34.6117 27.6903 35.4945 30.1727 37.1125 34.7273C37.8635 36.8411 38.5158 38.6764 38.5621 38.8056C38.6085 38.9348 39.5131 41.4762 40.5723 44.453C41.6316 47.4299 42.5144 49.8958 42.5342 49.9328C42.5699 49.9995 42.602 50 47.2851 50H52V38V26H40H28L28.0021 34.8364ZM34.0041 36.4765C33.3306 36.5764 32.6153 37.372 31.91 38.8056C31.1756 40.2985 30.5911 42.1369 30.3006 43.8676C30.0347 45.4515 30.1147 46.4902 30.5714 47.3818C31.0113 48.2409 31.7793 48.7488 32.9678 48.9666C33.4809 49.0607 34.7239 49.0703 35.2172 48.9841C36.9564 48.6801 37.8672 47.7769 38.1023 46.1231C38.2179 45.3102 38.074 43.9664 37.7159 42.5147C37.105 40.0376 36.1689 37.9669 35.2337 37.0239C34.799 36.5854 34.4168 36.4153 34.0041 36.4765Z" fill="#C4A386"/>
</g>
<defs>
<clipPath id="clip0_2872_83">
<rect width="24" height="24" fill="white" transform="translate(28 26)"/>
</clipPath>
</defs>
</svg>
